<?xml version="1.0" encoding="utf-8"?>
<!-- Generator: Adobe Illustrator 27.0.1, SVG Export Plug-In . SVG Version: 6.00 Build 0)  -->
<svg version="1.1" id="Layer_1" xmlns="http://www.w3.org/2000/svg" xmlns:xlink="http://www.w3.org/1999/xlink" x="0px" y="0px"
	 viewBox="0 0 512 512" style="enable-background:new 0 0 512 512;" xml:space="preserve">
<style type="text/css">
	.st0{fill:#592614;}
</style>
<g>
	<g>
		<g>
			<path class="st0" d="M93.1,448.2h325.8V225.5H93.1V448.2z M108.3,240.7h295.4V267H108.3V240.7z M108.3,282.2h295.4v26.3h0H108.3
				V282.2z M108.3,365.2h204.1V350H108.3v-26.3h295.4V350h-70.1v15.2h70.1v26.3H108.3V365.2z M108.3,406.7h295.4V433H108.3V406.7z"
				/>
			<path class="st0" d="M447.5,0h-383C45.1,0,29.3,15.8,29.3,35.3v108.7V512h453.5V143.9V35.3C482.7,15.8,466.9,0,447.5,0z
				 M467.5,496.8L467.5,496.8H44.5V143.9h120.3v-15.2H44.5V35.3c0-11.1,9-20.1,20.1-20.1h383c11.1,0,20.1,9,20.1,20.1v93.5H185v15.2
				h282.5L467.5,496.8L467.5,496.8z"/>
			<path class="st0" d="M126.7,42.6c-16.2,0-29.4,13.2-29.4,29.4s13.2,29.4,29.4,29.4c16.2,0,29.4-13.2,29.4-29.4
				S143,42.6,126.7,42.6z M126.7,86.2c-7.8,0-14.2-6.4-14.2-14.2s6.4-14.2,14.2-14.2c7.8,0,14.2,6.4,14.2,14.2
				S134.6,86.2,126.7,86.2z"/>
			<path class="st0" d="M212.9,101.4c16.2,0,29.4-13.2,29.4-29.4s-13.2-29.4-29.4-29.4c-16.2,0-29.4,13.2-29.4,29.4
				S196.7,101.4,212.9,101.4z M212.9,57.8c7.8,0,14.2,6.4,14.2,14.2s-6.4,14.2-14.2,14.2c-7.8,0-14.2-6.4-14.2-14.2
				S205.1,57.8,212.9,57.8z"/>
			<path class="st0" d="M299.1,101.4c16.2,0,29.4-13.2,29.4-29.4s-13.2-29.4-29.4-29.4c-16.2,0-29.4,13.2-29.4,29.4
				S282.9,101.4,299.1,101.4z M299.1,57.8c7.8,0,14.2,6.4,14.2,14.2s-6.4,14.2-14.2,14.2c-7.8,0-14.2-6.4-14.2-14.2
				S291.3,57.8,299.1,57.8z"/>
			<path class="st0" d="M385.3,101.4c16.2,0,29.4-13.2,29.4-29.4s-13.2-29.4-29.4-29.4c-16.2,0-29.4,13.2-29.4,29.4
				S369,101.4,385.3,101.4z M385.3,57.8c7.8,0,14.2,6.4,14.2,14.2s-6.4,14.2-14.2,14.2c-7.8,0-14.2-6.4-14.2-14.2
				S377.4,57.8,385.3,57.8z"/>
			<polygon class="st0" points="93.1,206 108.3,206 108.3,192.3 403.7,192.3 403.7,206 418.9,206 418.9,177.1 93.1,177.1 			"/>
		</g>
	</g>
</g>
</svg>
