<?xml version="1.0" encoding="utf-8"?>
<!-- Generator: Adobe Illustrator 27.0.1, SVG Export Plug-In . SVG Version: 6.00 Build 0)  -->
<svg version="1.1" id="Capa_1" xmlns="http://www.w3.org/2000/svg" xmlns:xlink="http://www.w3.org/1999/xlink" x="0px" y="0px"
	 viewBox="0 0 60 60" style="enable-background:new 0 0 60 60;" xml:space="preserve">
<style type="text/css">
	.st0{fill:#592614;}
</style>
<g>
	<path class="st0" d="M49.6,0H37H23H10.4L0,16.7V60h23h14h23V16.7L49.6,0z M48.4,2l8.8,14H37V2H48.4z M30,2h5v14h-5h-5V2H30z M25,18
		h1c0,0.6,0.4,1,1,1s1-0.4,1-1h4c0,0.6,0.4,1,1,1s1-0.4,1-1h1v3.6l-1-1l-4,4l-4-4l-1,1V18z M11.6,2H23v14H2.8L11.6,2z M25,58v-2.6
		l1,1l4-4l4,4l1-1V58H25z M37,58v-7.4l-3,3l-4-4l-4,4l-3-3V58H2V18h21v8.4l3-3l4,4l4-4l3,3V18h21v40H37z"/>
	<path class="st0" d="M20,48h20V30H20V48z M22,32h16v14H22V32z"/>
	<path class="st0" d="M31,42h-6c-0.6,0-1,0.4-1,1s0.4,1,1,1h6c0.6,0,1-0.4,1-1S31.6,42,31,42z"/>
	<path class="st0" d="M35,42h-1c-0.6,0-1,0.4-1,1s0.4,1,1,1h1c0.6,0,1-0.4,1-1S35.6,42,35,42z"/>
	<path class="st0" d="M35,34h-6c-0.6,0-1,0.4-1,1s0.4,1,1,1h6c0.6,0,1-0.4,1-1S35.6,34,35,34z"/>
	<path class="st0" d="M35,38h-2c-0.6,0-1,0.4-1,1s0.4,1,1,1h2c0.6,0,1-0.4,1-1S35.6,38,35,38z"/>
	<path class="st0" d="M25,40h2c0.6,0,1-0.4,1-1s-0.4-1-1-1h-2c-0.6,0-1,0.4-1,1S24.4,40,25,40z"/>
	<path class="st0" d="M25,36h1c0.6,0,1-0.4,1-1s-0.4-1-1-1h-1c-0.6,0-1,0.4-1,1S24.4,36,25,36z"/>
	<path class="st0" d="M30.7,39.7c0.2-0.2,0.3-0.5,0.3-0.7s-0.1-0.5-0.3-0.7c-0.4-0.4-1-0.4-1.4,0C29.1,38.5,29,38.7,29,39
		c0,0.3,0.1,0.5,0.3,0.7c0.2,0.2,0.4,0.3,0.7,0.3S30.5,39.9,30.7,39.7z"/>
	<circle class="st0" cx="30" cy="3" r="1"/>
	<circle class="st0" cx="27" cy="6" r="1"/>
	<circle class="st0" cx="27" cy="12" r="1"/>
	<circle class="st0" cx="30" cy="9" r="1"/>
	<circle class="st0" cx="33" cy="6" r="1"/>
	<circle class="st0" cx="33" cy="12" r="1"/>
	<circle class="st0" cx="30" cy="15" r="1"/>
	<circle class="st0" cx="30" cy="21" r="1"/>
</g>
</svg>
