<?xml version="1.0" encoding="utf-8"?>
<!-- Generator: Adobe Illustrator 27.0.1, SVG Export Plug-In . SVG Version: 6.00 Build 0)  -->
<svg version="1.1" id="Layer_1" xmlns="http://www.w3.org/2000/svg" xmlns:xlink="http://www.w3.org/1999/xlink" x="0px" y="0px"
	 viewBox="0 0 463 463" style="enable-background:new 0 0 463 463;" xml:space="preserve">
<style type="text/css">
	.st0{fill:#FFFFFF;}
	.st1{fill:#BC4C35;}
	.st2{fill:#592614;}
</style>
<g id="Layer_2_00000047765833704679073160000005990467057225177242_">
</g>
<g id="Layer_1_00000093136031177807450930000008376010021303299471_">
	<g>
		<path class="st0" d="M63,355.5c0,4.7,3.8,8.5,8.5,8.5h101.2c-3-4.8-4.7-10.5-4.7-16.5c0-17.4,14.1-31.5,31.5-31.5h64
			c17.4,0,31.5,14.1,31.5,31.5c0,6-1.7,11.7-4.7,16.5h101.2c4.7,0,8.5-3.8,8.5-8.5V299H63V355.5z"/>
		<path class="st1" d="M263.5,331h-64c-9.1,0-16.5,7.4-16.5,16.5s7.4,16.5,16.5,16.5h64c9.1,0,16.5-7.4,16.5-16.5
			S272.6,331,263.5,331z"/>
		<path class="st0" d="M367.5,131c-11,0-22,2.3-32.1,6.7c5,7,9.3,14.6,12.9,22.8c1.7,3.8-0.1,8.2-3.9,9.9c-1,0.4-2,0.6-3,0.6
			c-2.9,0-5.6-1.7-6.9-4.5c-15.7-35.9-48.6-60.7-86.5-66.3l0,0c-2.6-0.4-5.2-0.7-7.9-0.9c-0.3,0-0.6,0-0.9-0.1c-1-0.1-2-0.1-3-0.2
			c-0.3,0-0.7,0-1,0c-1.3,0-2.5-0.1-3.8-0.1s-2.5,0-3.8,0.1c-0.3,0-0.7,0-1,0c-1,0-2,0.1-3,0.2c-0.3,0-0.6,0-0.9,0.1
			c-2.6,0.2-5.3,0.5-7.9,0.9l0,0c-37.9,5.6-70.9,30.4-86.5,66.3c-1.7,3.8-6.1,5.5-9.9,3.9c-3.8-1.7-5.5-6.1-3.9-9.9
			c3.6-8.1,7.9-15.7,12.9-22.8c-10.1-4.4-21-6.7-32.1-6.7C51.1,131,15,167.1,15,211.5c0,30.8,17.9,59.1,45.7,72.5h65.9
			c-2.9-4.2-5.5-8.5-7.9-13c-1.9-3.7-0.5-8.2,3.1-10.1c3.7-1.9,8.2-0.5,10.1,3.1c3.8,7.1,8.3,13.8,13.5,20h172
			c5.2-6.2,9.7-12.9,13.5-20c1.9-3.7,6.5-5.1,10.1-3.1c3.7,1.9,5.1,6.5,3.1,10.1c-2.4,4.5-5,8.8-7.9,13h65.9
			c27.8-13.4,45.7-41.7,45.7-72.5C448,167.1,411.9,131,367.5,131z"/>
		<path class="st2" d="M367.5,116c-14.4,0-28.7,3.3-41.7,9.7c-19.9-21.9-46.6-36-75.5-40.3l0,0c-1.5-0.2-3-0.4-4.5-0.6h-0.1
			c-1.5-0.2-3-0.3-4.5-0.4c-0.2,0-0.4,0-0.6,0c-1.2-0.1-2.5-0.2-3.7-0.2c-0.4,0-0.7,0-1.1,0c-1.4,0-2.8-0.1-4.3-0.1
			c-1.4,0-2.8,0-4.3,0.1c-0.4,0-0.7,0-1.1,0c-1.2,0.1-2.5,0.1-3.7,0.2c-0.2,0-0.4,0-0.6,0c-1.5,0.1-3,0.3-4.5,0.4h-0.1
			c-1.5,0.2-3,0.4-4.5,0.6l0,0c-29,4.3-55.6,18.4-75.5,40.3c-13-6.3-27.3-9.7-41.7-9.7C42.8,116,0,158.8,0,211.5
			c0,34.3,18.6,65.8,48,82.8v61.2c0,13,10.5,23.5,23.5,23.5h320c13,0,23.5-10.5,23.5-23.5v-61.2c29.4-16.9,48-48.5,48-82.8
			C463,158.8,420.2,116,367.5,116z M263.5,364h-64c-9.1,0-16.5-7.4-16.5-16.5s7.4-16.5,16.5-16.5h64c9.1,0,16.5,7.4,16.5,16.5
			S272.6,364,263.5,364z M400,355.5c0,4.7-3.8,8.5-8.5,8.5H290.3c3-4.8,4.7-10.5,4.7-16.5c0-17.4-14.1-31.5-31.5-31.5h-64
			c-17.4,0-31.5,14.1-31.5,31.5c0,6,1.7,11.7,4.7,16.5H71.5c-4.7,0-8.5-3.8-8.5-8.5V299h337V355.5z M402.3,284h-65.9
			c2.9-4.2,5.5-8.5,7.9-13c1.9-3.7,0.5-8.2-3.1-10.1c-3.7-1.9-8.2-0.5-10.1,3.1c-3.8,7.1-8.3,13.8-13.5,20h-172
			c-5.2-6.2-9.7-12.9-13.5-20c-1.9-3.7-6.5-5.1-10.1-3.1c-3.7,1.9-5.1,6.5-3.1,10.1c2.4,4.5,5,8.8,7.9,13H60.7
			C32.9,270.6,15,242.3,15,211.5c0-44.4,36.1-80.5,80.5-80.5c11,0,22,2.3,32.1,6.7c-5,7-9.3,14.7-12.9,22.8
			c-1.7,3.8,0.1,8.2,3.9,9.9s8.2-0.1,9.9-3.9c15.7-35.9,48.6-60.6,86.5-66.3l0,0c2.6-0.4,5.2-0.7,7.9-0.9c0.3,0,0.6,0,0.9-0.1
			c1-0.1,2-0.1,3-0.2c0.3,0,0.7,0,1,0c1.3,0,2.5-0.1,3.8-0.1s2.5,0,3.8,0.1c0.3,0,0.7,0,1,0c1,0,2,0.1,3,0.2c0.3,0,0.6,0,0.9,0.1
			c2.6,0.2,5.3,0.5,7.9,0.9l0,0c37.9,5.6,70.9,30.4,86.5,66.3c1.2,2.8,4,4.5,6.9,4.5c1,0,2-0.2,3-0.6c3.8-1.7,5.5-6.1,3.9-9.9
			c-3.6-8.1-7.9-15.7-12.9-22.8c10.1-4.4,21-6.7,32.1-6.7c44.4,0,80.5,36.1,80.5,80.5C448,242.3,430.1,270.6,402.3,284z"/>
	</g>
</g>
</svg>
