<?xml version="1.0" encoding="utf-8"?>
<!-- Generator: Adobe Illustrator 27.0.1, SVG Export Plug-In . SVG Version: 6.00 Build 0)  -->
<svg version="1.1" id="Layer_1" xmlns="http://www.w3.org/2000/svg" xmlns:xlink="http://www.w3.org/1999/xlink" x="0px" y="0px"
	 viewBox="0 0 64 64" style="enable-background:new 0 0 64 64;" xml:space="preserve">
<style type="text/css">
	.st0{fill:#592614;}
</style>
<g id="Bullet-list">
	<path class="st0" d="M23,12.7h40c0.6,0,1-0.4,1-1c0-0.6-0.4-1-1-1H23c-0.6,0-1,0.4-1,1C22,12.3,22.4,12.7,23,12.7z"/>
	<path class="st0" d="M63,31.3H23c-0.6,0-1,0.4-1,1c0,0.6,0.4,1,1,1h40c0.6,0,1-0.4,1-1C64,31.7,63.5,31.3,63,31.3z"/>
	<path class="st0" d="M63,51.3H23c-0.6,0-1,0.4-1,1c0,0.6,0.4,1,1,1h40c0.6,0,1-0.4,1-1C64,51.7,63.5,51.3,63,51.3z"/>
	<path class="st0" d="M6,5.8c-3.3,0-6,2.7-6,6c0,3.3,2.7,6,6,6c3.3,0,6-2.7,6-6C12,8.5,9.3,5.8,6,5.8z M6,15.8c-2.2,0-4-1.8-4-4
		c0-2.2,1.8-4,4-4c2.2,0,4,1.8,4,4C10,14,8.2,15.8,6,15.8z"/>
	<path class="st0" d="M6,26.3c-3.3,0-6,2.7-6,6c0,3.3,2.7,6,6,6c3.3,0,6-2.7,6-6C12,29,9.3,26.3,6,26.3z M6,36.3c-2.2,0-4-1.8-4-4
		c0-2.2,1.8-4,4-4c2.2,0,4,1.8,4,4C10,34.5,8.2,36.3,6,36.3z"/>
	<path class="st0" d="M6,46.3c-3.3,0-6,2.7-6,6c0,3.3,2.7,6,6,6c3.3,0,6-2.7,6-6C12,49,9.3,46.3,6,46.3z M6,56.3c-2.2,0-4-1.8-4-4
		c0-2.2,1.8-4,4-4c2.2,0,4,1.8,4,4C10,54.5,8.2,56.3,6,56.3z"/>
</g>
</svg>
