<?xml version="1.0" encoding="utf-8"?>
<!-- Generator: Adobe Illustrator 27.0.1, SVG Export Plug-In . SVG Version: 6.00 Build 0)  -->
<svg version="1.1" id="Layer_1" xmlns="http://www.w3.org/2000/svg" xmlns:xlink="http://www.w3.org/1999/xlink" x="0px" y="0px"
	 viewBox="0 0 24 24" style="enable-background:new 0 0 24 24;" xml:space="preserve">
<style type="text/css">
	.st0{fill:#592614;}
</style>
<path class="st0" d="M20,11.5v-4C20,5.6,18.4,4,16.5,4h-9C5.6,4,4,5.6,4,7.5v9C4,18.4,5.6,20,7.5,20h5c0.8,0,1.5-0.7,1.5-1.5v-2
	c0-1.9,1.6-3.5,3.5-3.5h1C19.3,13,20,12.3,20,11.5z M19.9,13.6C19.5,13.8,19,14,18.5,14h-1c-1.4,0-2.5,1.1-2.5,2.5v2
	c0,0.4-0.1,0.8-0.3,1.2C17.4,18.8,19.5,16.5,19.9,13.6L19.9,13.6z M7.5,3h9C19,3,21,5,21,7.5v5c0,4.7-3.8,8.5-8.5,8.5h-5
	C5,21,3,19,3,16.5v-9C3,5,5,3,7.5,3z"/>
</svg>
