<?xml version="1.0" encoding="utf-8"?>
<!-- Generator: Adobe Illustrator 27.0.1, SVG Export Plug-In . SVG Version: 6.00 Build 0)  -->
<svg version="1.1" id="Layer_1" xmlns="http://www.w3.org/2000/svg" xmlns:xlink="http://www.w3.org/1999/xlink" x="0px" y="0px"
	 viewBox="0 0 485 485" style="enable-background:new 0 0 485 485;" xml:space="preserve">
<style type="text/css">
	.st0{fill:#592614;}
</style>
<g id="XMLID_29_">
	<g>
		<g>
			<path class="st0" d="M485,5H0v355h178.2l-16.7,75H130v45h225v-45h-31.5l-16.7-75H485V5z M340,450v15H145v-15H340z M212.1,435
				l11.2-45h38.3l11.2,45H212.1z M308.2,435h-19.8l-15-60h-61.7l-15,60h-19.8l16.7-75h98L308.2,435z M470,345H15V20h455V345z"/>
			<path class="st0" d="M450,40H35v285h415V40z M435,310H50V55h385V310z"/>
		</g>
	</g>
</g>
</svg>
