<?xml version="1.0" encoding="utf-8"?>
<!-- Generator: Adobe Illustrator 27.0.1, SVG Export Plug-In . SVG Version: 6.00 Build 0)  -->
<svg version="1.1" id="Capa_1" xmlns="http://www.w3.org/2000/svg" xmlns:xlink="http://www.w3.org/1999/xlink" x="0px" y="0px"
	 viewBox="0 0 470 470" style="enable-background:new 0 0 470 470;" xml:space="preserve">
<style type="text/css">
	.st0{fill:#592614;}
</style>
<g>
	<path class="st0" d="M391.2,366.1H363v-38.3c16.7-22.8,25.4-50.8,25.4-81.2V125.2C388.5,56.2,332.3,0,263.3,0
		c-56.8,0-106,38.5-120.7,92c-7.7-6.7-17.7-10.6-28.2-10.6c-23.7,0-43,19.3-43,43v122.2c0,39.6,14.4,73.9,41.6,99.5v86.4
		c0,20.7,16.8,37.5,37.5,37.5h175.1c18.2,0,33.4-13,36.8-30.3h28.9c4.1,0,7.5-3.4,7.5-7.5v-58.6
		C398.7,369.5,395.3,366.1,391.2,366.1z M325.5,455H150.4c-12.4,0-22.5-10.1-22.5-22.5v-89.7c0-2.1-0.9-4.2-2.5-5.6
		c-25.6-22.9-39.1-54.2-39.1-90.6V124.4c0-15.4,12.6-28,28-28c10.4,0,20,5.9,24.8,15.1c0,12.2,0,85.3,0,111.2c0,4.1,3.4,7.5,7.5,7.5
		s7.5-3.4,7.5-7.5c0-26.9,0-105.2,0-112.4C161.5,55.9,208.3,15,263.3,15c60.8,0,110.2,49.4,110.2,110.2v121.4
		c0,28.4-8,53.3-23.9,74.2c-1,1.3-1.5,2.9-1.5,4.5l0,106.9v0.3C348,444.9,337.9,455,325.5,455z M383.7,424.7H363v-43.6h20.7V424.7z"
		/>
	<path class="st0" d="M325.5,425H150.4c-4.1,0-7.5,3.4-7.5,7.5s3.4,7.5,7.5,7.5h175.1c4.1,0,7.5-3.4,7.5-7.5S329.7,425,325.5,425z"
		/>
	<path class="st0" d="M350,155.6l-9.7-9.7l9.7-9.7c2.9-2.9,2.9-7.7,0-10.6c-2.9-2.9-7.7-2.9-10.6,0l-9.7,9.7l-9.7-9.7
		c-2.9-2.9-7.7-2.9-10.6,0s-2.9,7.7,0,10.6l9.7,9.7l-9.7,9.7c-2.9,2.9-2.9,7.7,0,10.6c1.5,1.5,3.4,2.2,5.3,2.2s3.8-0.7,5.3-2.2
		l9.7-9.7l9.7,9.7c1.5,1.5,3.4,2.2,5.3,2.2s3.8-0.7,5.3-2.2C353,163.2,353,158.5,350,155.6z"/>
	<path class="st0" d="M256.4,113.2c1.5,1.5,3.4,2.2,5.3,2.2s3.8-0.7,5.3-2.2l9.7-9.7l9.7,9.7c1.5,1.5,3.4,2.2,5.3,2.2
		s3.8-0.7,5.3-2.2c2.9-2.9,2.9-7.7,0-10.6l-9.7-9.7l9.7-9.7c2.9-2.9,2.9-7.7,0-10.6c-2.9-2.9-7.7-2.9-10.6,0l-9.7,9.7l-9.7-9.7
		c-2.9-2.9-7.7-2.9-10.6,0c-2.9,2.9-2.9,7.7,0,10.6l9.7,9.7l-9.7,9.7C253.5,105.5,253.5,110.2,256.4,113.2z"/>
</g>
</svg>
