<?xml version="1.0" encoding="utf-8"?>
<!-- Generator: Adobe Illustrator 27.0.1, SVG Export Plug-In . SVG Version: 6.00 Build 0)  -->
<svg version="1.1" id="Capa_1" xmlns="http://www.w3.org/2000/svg" xmlns:xlink="http://www.w3.org/1999/xlink" x="0px" y="0px"
	 viewBox="0 0 198.1 198.1" style="enable-background:new 0 0 198.1 198.1;" xml:space="preserve">
<style type="text/css">
	.st0{fill:#592614;}
</style>
<g>
	<g>
		<g>
			<g>
				<g>
					<g>
						<path class="st0" d="M60,169.6c-32.5,0-59-33.1-59-73.8c0-39.7,25.2-84.1,59-84.1c21,0,41.5,18.6,52.2,47.5L110,60
							C99.6,32.1,80,14,60,14C28,14,3.3,58,3.3,95.8c0,39.4,25.4,71.5,56.7,71.5c3.5,0,7.1-0.4,10.6-1.3l0.5,2.2
							C67.4,169.1,63.7,169.6,60,169.6z"/>
						<path class="st0" d="M60,170.1c-32.8,0-59.5-33.3-59.5-74.3c0-39.9,25.4-84.6,59.5-84.6c21.2,0,41.9,18.8,52.7,47.8l0.2,0.5
							l-3.1,1.1l-0.2-0.5C99.3,32.4,79.8,14.5,60,14.5c-31.7,0-56.2,43.7-56.2,81.3c0,39.1,25.2,71,56.2,71c3.5,0,7-0.4,10.5-1.3
							l0.5-0.1l0.8,3.2l-0.5,0.1C67.5,169.6,63.7,170.1,60,170.1z M60,12.2c-33.5,0-58.5,44.1-58.5,83.6c0,40.4,26.2,73.3,58.5,73.3
							c3.5,0,7.1-0.4,10.6-1.2l-0.3-1.3c-3.4,0.8-6.9,1.2-10.3,1.2c-31.5,0-57.2-32.3-57.2-72c0-38,25-82.3,57.2-82.3
							c20.1,0,39.9,18,50.4,45.8l1.2-0.5C100.9,30.5,80.6,12.2,60,12.2z"/>
					</g>
				</g>
				<g>
					<g>
						<path class="st0" d="M60,170.1c-32.8,0-59.5-33.3-59.5-74.3c0-39.9,25.4-84.6,59.5-84.6c21.2,0,41.9,18.8,52.7,47.8l0.2,0.5
							l-3.1,1.1l-0.2-0.5C99.3,32.4,79.8,14.5,60,14.5c-31.7,0-56.2,43.7-56.2,81.3c0,39.1,25.2,71,56.2,71c3.5,0,7-0.4,10.5-1.3
							l0.5-0.1l0.8,3.2l-0.5,0.1C67.5,169.6,63.7,170.1,60,170.1z M60,12.2c-33.5,0-58.5,44.1-58.5,83.6c0,40.4,26.2,73.3,58.5,73.3
							c3.5,0,7.1-0.4,10.6-1.2l-0.3-1.3c-3.4,0.8-6.9,1.2-10.3,1.2c-31.5,0-57.2-32.3-57.2-72c0-38,25-82.3,57.2-82.3
							c20.1,0,39.9,18,50.4,45.8l1.2-0.5C100.9,30.5,80.6,12.2,60,12.2z"/>
						<path class="st0" d="M60,170.6c-33.1,0-60-33.5-60-74.8c0-40.2,25.6-85.1,60-85.1c21.4,0,42.3,18.9,53.1,48.1l0.3,0.9l-4,1.5
							l-0.3-0.9C98.9,32.8,79.6,15,60,15C28.6,15,4.3,58.5,4.3,95.8c0,38.9,25,70.5,55.7,70.5c3.5,0,7-0.4,10.4-1.3l1-0.2l1,4.1
							l-1,0.2C67.6,170.1,63.8,170.6,60,170.6z M60,12.7c-33.2,0-58,43.9-58,83.1c0,40.1,26,72.8,58,72.8c3.3,0,6.7-0.4,10-1.1
							l-0.1-0.3c-3.3,0.7-6.6,1.1-9.9,1.1c-31.8,0-57.7-32.5-57.7-72.5c0-38.3,25.2-82.8,57.7-82.8c20.2,0,40,17.9,50.7,45.7
							l0.3-0.1C100.3,30.7,80.3,12.7,60,12.7z M70.6,166l0.5,2.2l0,0L70.6,166c-0.1,0-0.1,0-0.2,0L70.6,166z M3.3,95.8
							c0,39.4,25.4,71.5,56.7,71.5C28.7,167.3,3.3,135.2,3.3,95.8z M60,11.7c-33.8,0-59,44.4-59,84.1C1,56.1,26.2,11.7,60,11.7z
							 M109.9,59.8c0,0.1,0.1,0.2,0.1,0.3l2.2-0.8l0,0L110,60L109.9,59.8z M60,11.7c20,0,39.7,17.1,50.8,43.9
							C99.7,28.9,80.1,11.8,60,11.7z"/>
					</g>
				</g>
			</g>
		</g>
		<g>
			<g>
				<g>
					<g>
						<path class="st0" d="M110.8,186.4c-14.2,0-27.5-4.7-37.3-14.5c-1.2-1.2-2.4-2.5-3.6-4l1.8-1.4c1.1,1.4,2.3,2.7,3.4,3.8
							c22.2,22,62.8,17.2,90.6-10.7c13.8-13.9,23.8-32.6,27.5-51.4c3.9-19.7,0.3-36.2-10.1-46.5c-17.2-17.1-48.3-12.7-71.6-0.9l-1-2
							c28.9-14.7,58.7-14.1,74.3,1.3c10.9,10.9,14.7,28.1,10.7,48.6c-3.8,19.3-14.1,38.4-28.1,52.6
							C150.9,177.7,130,186.4,110.8,186.4z"/>
						<path class="st0" d="M110.8,186.9L110.8,186.9c-15,0-28-5.1-37.6-14.6c-1.2-1.2-2.4-2.6-3.6-4.1l-0.3-0.4l2.6-2l0.3,0.4
							c1.1,1.4,2.2,2.6,3.4,3.8c9,9,21.2,13.7,35.3,13.7c19.3,0,39.2-8.9,54.6-24.4c13.7-13.8,23.7-32.4,27.4-51.2
							c3.9-19.5,0.3-35.9-9.9-46.1c-7.4-7.3-18.1-11.2-30.9-11.2c-12.7,0-27,3.7-40.1,10.4l-0.4,0.2l-1.5-2.9l0.4-0.2
							c13.8-7,28-10.7,41.1-10.7c14.1,0,25.7,4.2,33.7,12.1c11.1,11,14.9,28.4,10.8,49.1c-3.8,19.4-14.1,38.6-28.3,52.9
							C151.7,177.6,131,186.9,110.8,186.9z M70.7,167.9c1.1,1.3,2.1,2.5,3.2,3.6c9.4,9.4,22.2,14.4,36.9,14.4
							c19.9,0,40.4-9.1,56.2-25.1c14-14.1,24.2-33.2,28-52.4c4-20.3,0.3-37.4-10.6-48.2c-7.8-7.7-19.2-11.8-33-11.8
							c-12.8,0-26.8,3.6-40.2,10.4l0.6,1.2c13.2-6.6,27.4-10.2,40.1-10.2c13.1,0,24.1,4,31.6,11.5c10.5,10.4,14.1,27.1,10.2,47
							c-3.7,18.9-13.8,37.8-27.6,51.7c-15.6,15.7-35.8,24.7-55.3,24.7c-14.4,0-26.8-4.8-36-14c-1.1-1.1-2.1-2.2-3.1-3.5L70.7,167.9z
							"/>
					</g>
				</g>
				<g>
					<g>
						<path class="st0" d="M110.8,186.9L110.8,186.9c-15,0-28-5.1-37.6-14.6c-1.2-1.2-2.4-2.6-3.6-4.1l-0.3-0.4l2.6-2l0.3,0.4
							c1.1,1.4,2.2,2.6,3.4,3.8c9,9,21.2,13.7,35.3,13.7c19.3,0,39.2-8.9,54.6-24.4c13.7-13.8,23.7-32.4,27.4-51.2
							c3.9-19.5,0.3-35.9-9.9-46.1c-7.4-7.3-18.1-11.2-30.9-11.2c-12.7,0-27,3.7-40.1,10.4l-0.4,0.2l-1.5-2.9l0.4-0.2
							c13.8-7,28-10.7,41.1-10.7c14.1,0,25.7,4.2,33.7,12.1c11.1,11,14.9,28.4,10.8,49.1c-3.8,19.4-14.1,38.6-28.3,52.9
							C151.7,177.6,131,186.9,110.8,186.9z M70.7,167.9c1.1,1.3,2.1,2.5,3.2,3.6c9.4,9.4,22.2,14.4,36.9,14.4
							c19.9,0,40.4-9.1,56.2-25.1c14-14.1,24.2-33.2,28-52.4c4-20.3,0.3-37.4-10.6-48.2c-7.8-7.7-19.2-11.8-33-11.8
							c-12.8,0-26.8,3.6-40.2,10.4l0.6,1.2c13.2-6.6,27.4-10.2,40.1-10.2c13.1,0,24.1,4,31.6,11.5c10.5,10.4,14.1,27.1,10.2,47
							c-3.7,18.9-13.8,37.8-27.6,51.7c-15.6,15.7-35.8,24.7-55.3,24.7c-14.4,0-26.8-4.8-36-14c-1.1-1.1-2.1-2.2-3.1-3.5L70.7,167.9z
							"/>
						<path class="st0" d="M110.8,187.4L110.8,187.4c-15.1,0-28.2-5.1-38-14.8c-1.3-1.3-2.4-2.6-3.7-4.1l-0.6-0.8l3.3-2.7l0.6,0.8
							c1.1,1.4,2.2,2.6,3.3,3.7c8.9,8.9,21,13.6,35,13.6c19.1,0,38.9-8.8,54.2-24.3c13.6-13.7,23.6-32.3,27.2-50.9
							c3.8-19.4,0.4-35.6-9.8-45.7c-7.3-7.2-17.8-11-30.6-11c-12.6,0-26.8,3.7-39.9,10.3l-0.9,0.4l-1.9-3.8l0.9-0.4
							c13.8-7,28.1-10.8,41.4-10.8c14.2,0,26,4.2,34,12.3c11.2,11.1,15.1,28.7,11,49.5c-3.8,19.5-14.2,38.8-28.4,53.1
							C152,178.1,131.1,187.3,110.8,187.4z M71.4,168c0.9,1.1,1.9,2.2,2.9,3.2c9.4,9.3,22,14.2,36.6,14.2c19.8,0,40.1-9.1,55.9-24.9
							c13.9-14,24.1-33,27.9-52.1c4-20.1,0.3-37.1-10.4-47.7c-7.7-7.7-19-11.7-32.7-11.7c-12.6,0-26.3,3.5-39.6,10.1l0.1,0.3
							c13.1-6.5,27.2-10.1,39.9-10.1c13.3,0,24.3,4,32,11.6c10.6,10.6,14.3,27.4,10.3,47.4c-3.8,19-13.9,38-27.8,51.9
							c-15.7,15.8-36,24.8-55.6,24.8c-14.5,0-27.1-4.9-36.3-14.1c-1-1-1.9-2-2.9-3.1L71.4,168z M70.7,168.7c0.7,0.9,1.5,1.7,2.3,2.5
							C72.2,170.4,71.4,169.6,70.7,168.7z M71.8,166.4l-1.6,1.3L71.8,166.4l0.1,0.2C71.9,166.5,71.8,166.5,71.8,166.4z M197.1,90.3
							c0.3,5.7-0.2,11.8-1.5,18.3c-3.1,15.4-10.3,30.8-20.2,43.6c10-12.8,17.2-28.2,20.2-43.6C196.8,102.1,197.3,96,197.1,90.3z
							 M194.8,89.9c0.3,5.6-0.2,11.7-1.4,18.2c-2.9,14.8-9.7,29.5-19.2,41.9c9.5-12.4,16.3-27.1,19.2-41.9
							C194.6,101.7,195.1,95.6,194.8,89.9z M152,50.2c12.9,0,23.6,3.8,31.1,11.1C175.6,54.1,164.9,50.2,152,50.2z M111.6,60.5
							l0.1,0.2c1.1-0.5,2.1-1.1,3.2-1.6c-0.9,0.4-1.9,0.9-2.8,1.3l-0.4,0.2L111.6,60.5z M151.3,47.9c-11.8,0-24.5,3.1-37,8.9
							C126.7,51,139.5,48,151.3,47.9z M151.9,47.9c10.2,0,19,2.3,26.1,6.6C170.9,50.3,162,48,151.9,47.9z"/>
					</g>
				</g>
			</g>
		</g>
		<g>
			<g>
				<g>
					<g>
						<path class="st0" d="M70,167.9c-19.2-24-13.3-62.6,13.8-89.9c7.5-7.6,16.8-14.3,26.9-19.4l1,2c-9.8,5-18.9,11.5-26.3,18.9
							c-26.3,26.4-32.1,63.8-13.6,86.8L70,167.9z"/>
						<path class="st0" d="M69.9,168.6l-0.3-0.4C50.2,144,56.1,105.1,83.4,77.6c7.6-7.6,16.9-14.3,27-19.5l0.4-0.2l1.5,2.9l-0.4,0.2
							c-9.8,5-18.8,11.5-26.1,18.9c-26.1,26.2-31.9,63.3-13.6,86.2l0.3,0.4L69.9,168.6z M110.4,59.3c-9.8,5.1-18.9,11.6-26.3,19.1
							c-26.8,26.9-32.7,65-14,88.9l1-0.8C52.8,143.1,58.7,105.7,85,79.2c7.3-7.3,16.2-13.8,26-18.8L110.4,59.3z"/>
					</g>
				</g>
				<g>
					<g>
						<path class="st0" d="M69.9,168.6l-0.3-0.4C50.2,144,56.1,105.1,83.4,77.6c7.6-7.6,16.9-14.3,27-19.5l0.4-0.2l1.5,2.9l-0.4,0.2
							c-9.8,5-18.8,11.5-26.1,18.9c-26.1,26.2-31.9,63.3-13.6,86.2l0.3,0.4L69.9,168.6z M110.4,59.3c-9.8,5.1-18.9,11.6-26.3,19.1
							c-26.8,26.9-32.7,65-14,88.9l1-0.8C52.8,143.1,58.7,105.7,85,79.2c7.3-7.3,16.2-13.8,26-18.8L110.4,59.3z"/>
						<path class="st0" d="M69.8,169.2l-0.6-0.8C49.7,144.1,55.6,104.9,83,77.3c7.6-7.6,17-14.4,27.1-19.6l0.9-0.4l1.9,3.8l-0.9,0.4
							c-9.8,5-18.7,11.4-26,18.8c-25.9,26.1-31.7,62.8-13.5,85.5l0.6,0.8L69.8,169.2z M110.2,59.9c-9.6,5-18.5,11.5-25.7,18.7
							c-26.4,26.5-32.5,64.2-14.3,87.8l0.3-0.2c-18.1-23.5-12-61,14.3-87.4c7.2-7.2,16.1-13.7,25.7-18.7L110.2,59.9z M82.5,79.2
							c-25.4,26.5-31.2,63.1-13.9,86.8C51.3,142.4,57.2,105.7,82.5,79.2z M106.6,60.7c-8.3,4.6-15.9,10.3-22.3,16.6
							C90.7,71.1,98.3,65.4,106.6,60.7z M111.6,60.6l-0.4,0.2c-1.8,0.9-3.7,1.9-5.4,3C107.7,62.7,109.7,61.6,111.6,60.6L111.6,60.6z
							"/>
					</g>
				</g>
			</g>
		</g>
	</g>
</g>
</svg>
