<?xml version="1.0" encoding="utf-8"?>
<!-- Generator: Adobe Illustrator 27.0.1, SVG Export Plug-In . SVG Version: 6.00 Build 0)  -->
<svg version="1.1" id="Layer_1" xmlns="http://www.w3.org/2000/svg" xmlns:xlink="http://www.w3.org/1999/xlink" x="0px" y="0px"
	 viewBox="0 0 504.4 504.4" style="enable-background:new 0 0 504.4 504.4;" xml:space="preserve">
<style type="text/css">
	.st0{fill:#592614;}
</style>
<g transform="translate(1 1)">
	<g>
		<g>
			<path class="st0" d="M68.7,354.5c-15.1,15.1-26,33.6-31.1,52c-5.9,18.5-3.4,34.4,5.9,43.6c1.7,1.7,3.4,2.5,5.9,2.5
				s4.2-0.8,5.9-2.5c3.4-3.4,3.4-8.4,0-11.8c-4.2-5-5-15.1-1.7-27.7c4.2-15.1,13.4-31.1,26.9-44.5c3.4-3.4,3.4-8.4,0-11.8
				C77.1,351.1,72,351.1,68.7,354.5z"/>
			<path class="st0" d="M493.4,9.5c-13.4-13.4-34.4-13.4-47.8,0L178.8,290.2c-37.6-16.4-90.6-1.9-132.8,38.2
				c-29.4,28.5-47,65.5-47,99c0,22.7,8.4,42,23.5,55.4S56.9,503,77.9,503c31.9,0,68.8-15.1,99-43.6c27.7-26.9,45.3-63,45.3-96.5
				c0-12.5-2.3-24.5-6.8-35.1L493.4,57.3C506.8,43.9,506.8,22.9,493.4,9.5z M165.2,447.6c-42.8,41.1-100.7,51.2-130.9,23.5
				c-11.8-10.1-18.5-25.2-18.5-42.8c0-29.4,15.1-62.1,42-87.3c27.7-26,59.6-40.3,87.3-40.3c10,0,19.8,1.8,28.3,5.6
				c0.7,0.9,1.6,1.6,2.8,2c4.2,2.5,9.2,5.9,12.6,9.2c3.4,3.4,6.7,7.6,9.2,12.6c0.2,0.7,0.6,1.3,1.1,1.9c4.3,9.1,6.5,19.5,6.5,30.9
				C205.5,392.2,190.4,424.1,165.2,447.6z M480.8,44.7L207.2,312.5c-0.4-0.4-0.9-0.9-1.3-1.3c-1.3-1.7-2.7-3.3-4.2-4.9
				c-0.4-0.4-0.8-0.9-1.3-1.3c-2.5-2.5-5-5-7.6-6.7l264.4-277c6.7-6.7,16.8-6.7,23.5,0C487.5,27.1,487.5,38,480.8,44.7z"/>
		</g>
	</g>
</g>
</svg>
